<svg width="33" height="28" fill="none" xmlns="http://www.w3.org/2000/svg"><path d="M0 16.497c0-.19.075-.373.21-.508L15.987.21a.717.717 0 011.014 0l15.78 15.779a.717.717 0 11-1.015 1.014L16.496 1.732 1.225 17.004A.717.717 0 010 16.496z" fill="#F44336"/><path d="M0 16.497c0-.19.075-.373.21-.508L15.987.21a.717.717 0 011.014 0l15.78 15.779a.717.717 0 11-1.015 1.014L16.496 1.732 1.225 17.004A.717.717 0 010 16.496z" fill="#000"/><path d="M0 26.497c0-.19.075-.373.21-.508L15.987 10.21a.717.717 0 011.014 0l15.78 15.779a.717.717 0 11-1.015 1.014l-15.27-15.271L1.225 27.004A.717.717 0 010 26.496z" fill="#F44336"/><path d="M0 26.497c0-.19.075-.373.21-.508L15.987 10.21a.717.717 0 011.014 0l15.78 15.779a.717.717 0 11-1.015 1.014l-15.27-15.271L1.225 27.004A.717.717 0 010 26.496z" fill="#000"/></svg>