<svg width="92" height="53" fill="none" xmlns="http://www.w3.org/2000/svg"><path fill-rule="evenodd" clip-rule="evenodd" d="M51.476 13.178L39.081 25.361l2.782 2.74 2.782 2.738L57 18.699c6.795-6.678 12.354-12.221 12.354-12.32 0-.175-5.218-5.384-5.393-5.384-.048 0-5.666 5.483-12.484 12.183zm19.451 2.79c-8.275 8.227-17.594 17.46-20.708 20.519l-5.661 5.561-8.265-8.121-8.265-8.121-2.74 2.692-2.74 2.693 11.05 10.86 11.05 10.858 23.676-23.268L92 6.373l-2.9-2.645c-1.595-1.454-2.951-2.66-3.013-2.68-.063-.02-6.884 6.694-15.16 14.92zM2.737 28.587L0 31.28l11.049 10.857 11.048 10.857 2.787-2.734 2.786-2.735L16.665 36.71C10.612 30.76 5.618 25.893 5.567 25.893c-.051 0-1.324 1.212-2.83 2.694z" fill="#E21624"/></svg>