<svg width="497" height="456" fill="none" xmlns="http://www.w3.org/2000/svg"><circle cx="248.007" cy="216" r="196" fill="url(#paint0_radial_869_1653)"/><path d="M168.007 390v44l38.089 22 38.089-22v-44l-38.089-22-38.089 22zm84 0v44l38.089 22 38.089-22v-44l-38.089-22-38.089 22zm-42-74v44l38.089 22 38.089-22v-44l-38.089-22-38.089 22zm-84 0v44l38.089 22 38.089-22v-44l-38.089-22-38.089 22zm-84 0v44l38.089 22 38.089-22v-44l-38.089-22-38.09 22zm252 0v44l38.089 22 38.089-22v-44l-38.089-22-38.089 22zm84 0v44l38.089 22 38.089-22v-44l-38.089-22-38.089 22zm-210-73v44l38.089 22 38.089-22v-44l-38.089-22-38.089 22zm-84 0v44l38.089 22 38.089-22v-44l-38.089-22-38.09 22zm-84 0v44l38.089 22 38.09-22v-44l-38.09-22-38.09 22zm252 0v44l38.089 22 38.089-22v-44l-38.089-22-38.089 22zm168 0v44l38.089 22 38.089-22v-44l-38.089-22-38.089 22zm-84 0v44l38.089 22 38.089-22v-44l-38.089-22-38.089 22zm-126-74v44l38.089 22 38.089-22v-44l-38.089-22-38.089 22zm-84 0v44l38.089 22 38.089-22v-44l-38.089-22-38.089 22zm-84 0v44l38.089 22 38.089-22v-44l-38.089-22-38.09 22zm252 0v44l38.089 22 38.089-22v-44l-38.089-22-38.089 22zm84 0v44l38.089 22 38.089-22v-44l-38.089-22-38.089 22zm-210-73v44l38.089 22 38.089-22V96l-38.089-22-38.089 22zm-84 0v44l38.089 22 38.089-22V96l-38.089-22-38.09 22zm-84 0v44l38.089 22 38.09-22V96l-38.09-22L.006 96zm252 0v44l38.089 22 38.089-22V96l-38.089-22-38.089 22zm84 0v44l38.089 22 38.089-22V96l-38.089-22-38.089 22zm-126-74v44l38.089 22 38.089-22V22L248.096 0l-38.089 22zm-84 0v44l38.089 22 38.089-22V22L164.096 0l-38.089 22zm-84 0v44l38.089 22 38.089-22V22L80.096 0l-38.09 22zm252 0v44l38.089 22 38.089-22V22L332.096 0l-38.089 22z" fill="#77B3D1"/><defs><radialGradient id="paint0_radial_869_1653" cx="0" cy="0" r="1" gradientUnits="userSpaceOnUse" gradientTransform="matrix(0 196 -196 0 248.007 216)"><stop stop-color="#fff"/><stop offset="1" stop-color="#fff" stop-opacity="0"/></radialGradient></defs></svg>