<svg width="108" height="28" fill="none" xmlns="http://www.w3.org/2000/svg"><path fill-rule="evenodd" clip-rule="evenodd" d="M58.601 1.292c-4.907.93-5.222 1.017-5.222 1.435 0 .23.247.417.548.417.302 0 .857.251 1.233.558l.685.558.145 11.336.145 11.336 1.886.333c2.732.483 6.616.469 8.287-.031 4.453-1.33 6.845-4.777 6.878-9.908.04-6.312-4.647-10.253-10.016-8.42l-1.668.57V5.141c0-3.29-.087-4.324-.363-4.298-.199.02-1.341.22-2.538.448zm-57.676.6c.055.288.475.578.99.684 1.27.26 1.567.503 2.091 1.699.372.849.487 2.486.58 8.276.174 10.854-.264 13.027-2.723 13.49-.589.112-.99.36-.99.612 0 .36 1.044.425 6.816.425 5.743 0 6.818-.066 6.818-.42 0-.261-.46-.513-1.205-.66-.772-.155-1.404-.51-1.762-.994-.658-.885-1.072-3.686-1.085-7.339l-.01-2.554h1.864c1.58 0 1.998.115 2.753.754.49.415.998 1.17 1.128 1.678.163.638.436.954.88 1.019.643.094.643.09.563-4.232-.074-3.98-.123-4.327-.615-4.327-.362 0-.66.37-.925 1.141-.622 1.821-1.207 2.218-3.565 2.417l-2.083.175.003-3.763c.001-2.07.085-4.453.185-5.296l.183-1.533h2.725c1.662 0 3.099.158 3.684.404 1.334.56 2.678 2.091 3.427 3.902.682 1.649.772 1.723 1.424 1.167.345-.294.407-1.033.32-3.794l-.107-3.43H11.56c-9.967 0-10.723.036-10.634.5zM26.835 8.5c-1.76.46-2.927 1.07-3.998 2.09-3.042 2.9-3.915 8.025-2.063 12.11.904 1.995 1.875 3.044 3.74 4.04 1.293.692 1.768.776 4.352.774 3.513-.002 5.284-.668 7.127-2.679 1.947-2.126 2.447-3.544 2.447-6.956 0-2.73-.066-3.058-.975-4.918-1.038-2.12-2.509-3.458-4.63-4.211-1.588-.564-4.357-.68-6-.25zm16.02.505c-2.197.424-4.07.847-4.162.939-.313.315.215.79.879.79.365 0 .912.276 1.216.614.508.565.553 1.13.553 6.932 0 6.958-.105 7.453-1.656 7.857-.503.132-.968.397-1.032.59-.088.267 1.296.352 5.71.352 4.736 0 5.825-.075 5.825-.4 0-.246-.453-.46-1.183-.559-.65-.087-1.352-.392-1.558-.676-.48-.66-.735-3.398-.738-7.903-.002-3.99.131-4.306 1.954-4.65.953-.18 2.305.04 3.556.576.332.143.66-.383 1.38-2.221.876-2.23.91-2.436.453-2.774-.737-.545-2.363-.441-3.765.242-1.195.582-2.038 1.388-3.022 2.888-.437.667-.452.62-.33-1.08.07-.978.08-1.893.023-2.034-.058-.14-1.904.092-4.102.517zM82.2 8.41c-3.48.693-5.981 3.213-6.941 6.992-1.28 5.038 1.047 9.961 5.498 11.636 3.331 1.255 7.464.539 9.857-1.707 1.386-1.3 1.236-2.013-.239-1.138-1.278.76-3.796 1.023-5.26.55-2.628-.848-4.457-3.39-4.463-6.202l-.002-1.387h11.393l-.192-1.64c-.625-5.355-4.416-8.146-9.651-7.104zm16.648-.004c-3.262.826-4.913 2.571-5.091 5.381-.19 3.01.897 4.359 4.733 5.867 1.117.439 2.455 1.114 2.974 1.499.813.604.943.876.943 1.974 0 1.073-.146 1.395-.93 2.059-.807.683-1.125.77-2.42.663-1.96-.164-3.005-.952-4.162-3.135-1.465-2.765-1.907-2.37-1.611 1.437l.202 2.605 1.98.453c2.468.565 5.841.582 7.633.04 2.841-.86 4.51-3.003 4.523-5.804.012-2.658-.907-3.65-5.295-5.71-2.647-1.243-3.187-1.613-3.52-2.41-.483-1.156-.169-2.507.764-3.279.493-.409.963-.505 1.922-.397 1.666.19 2.619.944 3.618 2.866.45.866.972 1.575 1.16 1.575.41 0 .604-2.124.35-3.836-.168-1.137-.255-1.229-1.433-1.527-1.861-.472-5.097-.636-6.34-.321zm-68.016 1.966c1.442 1.514 1.78 2.987 1.794 7.804.01 3.564-.086 4.635-.518 5.761-1.437 3.746-4.648 3.294-5.896-.83-.626-2.068-.72-8.587-.153-10.537.845-2.899 3.111-3.943 4.773-2.198zm54.505.07c.505.683 1.205 4.53.916 5.034-.07.12-1.358.219-2.865.219h-2.739v-.823c0-1.368.822-3.709 1.597-4.55.928-1.007 2.299-.955 3.091.12zm-19.947.889c1.447 1.277 2.04 3.26 2.008 6.699-.02 2.12-.18 3.179-.678 4.497-.822 2.175-2.153 3.66-3.331 3.716-2.052.098-1.886.781-1.886-7.751 0-8.419-.097-7.987 1.803-8.028.808-.017 1.33.2 2.084.867z" fill="#00305A"/></svg>