<svg width="454" height="382" fill="none" xmlns="http://www.w3.org/2000/svg"><ellipse cx="223" cy="182" rx="133" ry="134" transform="rotate(-180 223 182)" fill="url(#paint0_radial_869_693)"/><path d="M244.178 66V22L206.089 0 168 22v44l38.089 22 38.089-22zm84 0V22L290.089 0 252 22v44l38.089 22 38.089-22zm84 0V22L374.089 0 336 22v44l38.089 22 38.089-22zm-252 0V22L122.089 0l-38.09 22v44l38.09 22 38.089-22zm126 73V95l-38.089-22L210 95v44l38.089 22 38.089-22zm84 0V95l-38.089-22L294 95v44l38.089 22 38.089-22zm84 0V95l-38.089-22L378 95v44l38.089 22 38.089-22zm-252 0V95l-38.089-22L126 95v44l38.089 22 38.089-22zm-84 0V95L80.089 73l-38.09 22v44l38.09 22 38.089-22zm126 74v-44l-38.089-22L168 169v44l38.089 22 38.089-22zm84 0v-44l-38.089-22L252 169v44l38.089 22 38.089-22zm84 0v-44l-38.089-22L336 169v44l38.089 22 38.089-22zm-252 0v-44l-38.089-22-38.09 22v44l38.09 22 38.089-22zm-84 0v-44L38.09 147 0 169v44l38.09 22 38.09-22zm210 73v-44l-38.089-22L210 242v44l38.089 22 38.089-22zm84 0v-44l-38.089-22L294 242v44l38.089 22 38.089-22zm84 0v-44l-38.089-22L378 242v44l38.089 22 38.089-22zm-252 0v-44l-38.089-22L126 242v44l38.089 22 38.089-22zm-84 0v-44l-38.089-22-38.09 22v44l38.09 22 38.089-22zm126 74v-44l-38.089-22L168 316v44l38.089 22 38.089-22zm84 0v-44l-38.089-22L252 316v44l38.089 22 38.089-22zm84 0v-44l-38.089-22L336 316v44l38.089 22 38.089-22zm-252 0v-44l-38.089-22-38.09 22v44l38.09 22 38.089-22z" fill="#0F0F0F"/><defs><radialGradient id="paint0_radial_869_693" cx="0" cy="0" r="1" gradientUnits="userSpaceOnUse" gradientTransform="matrix(0 134 -133 0 223 182)"><stop stop-color="#FEEB19"/><stop offset="1" stop-color="#FEEB19" stop-opacity="0"/></radialGradient></defs></svg>