<svg width="421" height="98" fill="none" xmlns="http://www.w3.org/2000/svg"><path d="M177.53 82.53v4.19h-4.82v-4.19c-5.333-.393-9.59-1.84-12.77-4.34a12.5 12.5 0 01-4.77-10.29 12.486 12.486 0 014.77-10.28c3.207-2.507 7.463-3.953 12.77-4.34v-4.19h4.82v4.19c5.373.38 9.633 1.827 12.78 4.34a12.434 12.434 0 014.82 10.28 12.46 12.46 0 01-4.82 10.29c-3.153 2.5-7.413 3.947-12.78 4.34zm-14.2-21.76A8.564 8.564 0 00160 67.9a8.494 8.494 0 003.33 7.1c2.187 1.687 5.313 2.687 9.38 3V57.78c-4.06.28-7.187 1.277-9.38 2.99zm14.2-3V78c4.06-.29 7.19-1.28 9.38-3a8.547 8.547 0 003.29-7.13 8.569 8.569 0 00-3.29-7.13c-2.187-1.687-5.313-2.673-9.38-2.96v-.01zm37.15 1.49a12.712 12.712 0 019.49 4.08 14.419 14.419 0 010 19.77 12.631 12.631 0 01-9.49 4 11.243 11.243 0 01-10-5.24v15.18h-4.61V60h4.61v4.56a11.224 11.224 0 0110-5.3zm-.58 23.43a9.074 9.074 0 006.68-2.7 9.448 9.448 0 002.7-6.79 9.144 9.144 0 00-2.7-6.73 9.549 9.549 0 00-13.41 0 9.14 9.14 0 00-2.7 6.73 9.445 9.445 0 002.7 6.79 9.133 9.133 0 006.73 2.7zm41.45-18.18V60h4.61v26.5h-4.61v-4.6a11.183 11.183 0 01-10 5.24 12.63 12.63 0 01-9.49-4 14.419 14.419 0 010-19.77 12.73 12.73 0 019.49-4.08 11.162 11.162 0 0110 5.22zm-9.44 18.18a9.132 9.132 0 006.73-2.7 9.44 9.44 0 002.71-6.79 9.308 9.308 0 00-2.715-6.737 9.317 9.317 0 00-6.725-2.743 9.003 9.003 0 00-6.67 2.75 9.102 9.102 0 00-2.71 6.73 9.442 9.442 0 002.71 6.8 9.05 9.05 0 006.67 2.69zM285.49 71V60h4.61v26.5h-4.61V75.38h-13.72v11.07h-4.62V60h4.62v11h13.72zm43.3 11.05V60h4.61v26.5h-36.3V60h4.61v22.1H313V60h4.61v22.1l11.18-.05zM345 78.56L359.69 60h3.71v26.5h-4.56V67.85l-14.68 18.6h-3.71V60H345v18.56zm39.71-5.67c2.933 1.233 4.4 3.333 4.4 6.3a7.106 7.106 0 01-2.71 5.7c-1.8 1.5-4.29 2.25-7.47 2.25-5.3 0-8.85-2.12-10.65-6.36l3.87-2.28c.98 2.9 3.257 4.35 6.83 4.35a6.681 6.681 0 004.08-1.11 3.537 3.537 0 001.49-3 3.235 3.235 0 00-1.2-2.6 4.79 4.79 0 00-3.2-1h-3.87V71h2.86a4.6 4.6 0 003.13-1 3.407 3.407 0 001.11-2.68 3.337 3.337 0 00-1.32-2.78 5.63 5.63 0 00-3.55-1c-2.967 0-4.983 1.257-6.05 3.77l-3.76-2.18c1.873-3.88 5.143-5.823 9.81-5.83a10.168 10.168 0 016.81 2.2 6.998 6.998 0 012.57 5.5 6.436 6.436 0 01-3.18 5.89zM416 64.51V60h4.61v26.5H416v-4.6a11.183 11.183 0 01-10 5.24 12.652 12.652 0 01-9.49-4 14.419 14.419 0 010-19.77 12.727 12.727 0 019.49-4.11 11.16 11.16 0 0110 5.25zm-9.4 18.18a9.158 9.158 0 006.73-2.7A9.46 9.46 0 00416 73.2a9.31 9.31 0 00-9.43-9.48 9 9 0 00-6.68 2.75 9.147 9.147 0 00-2.71 6.73 9.481 9.481 0 002.74 6.8 9.077 9.077 0 006.68 2.69z" fill="#1A1A18"/><path fill-rule="evenodd" clip-rule="evenodd" d="M7.79 26.54h130.39V85a7.79 7.79 0 01-7.79 7.79H7.79A7.79 7.79 0 010 85V34.33a7.79 7.79 0 017.79-7.79z" fill="#76B2D0"/><path fill-rule="evenodd" clip-rule="evenodd" d="M154.38 19.48C157 16 158.26 10 156.22 0 130.48 4 136 17.91 138.46 22.26a88.993 88.993 0 0113.32-16.12 98.191 98.191 0 00-8.86 15.71c3.47-4 7.54-4.21 11.46-2.37zm8.1 8.16c-11.28 12.72-17.33 5.68-19.58 1.86a29.997 29.997 0 0110.88-1.5 33.47 33.47 0 00-11.51-1.45c1.37-3.29 7.01-13 20.21 1.09z" fill="#85BC22"/><path fill-rule="evenodd" clip-rule="evenodd" d="M78.76 41.08h3.39v3.39h-3.39v-3.39zM30.21 62.32l8.42-21.24h5.6L31.29 71.57c-1.9 4.47-4.39 6.45-9 6.63a18.768 18.768 0 01-7-1.24v-4.27c4.37 1.28 4.94 1.43 6.5 1.4 2.13 0 3.93-1.14 6-5.92L15.32 41.08h5.41l9.48 21.24zM66.92 78.2h-4.67v-9.87a24.55 24.55 0 01-6.29.81c-6.55 0-10.44-3.38-10.5-10.06V51h4.65v8.27c0 4.06 2 5.83 5.85 5.83a24.55 24.55 0 006.29-.81V51h4.67v27.2zm18.6 0c-8.72 0-12.94-5.72-12.94-13.69 0-7 4.51-13.49 12.34-13.49 9.76 0 11.61 7.13 11.61 14.88H76.88a8.461 8.461 0 008.79 8.49A9.24 9.24 0 0093.22 71l3 2.13c-2.4 3.38-5.967 5.07-10.7 5.07zm-.6-23.51c-4.55 0-7.36 3.57-7.88 7.54h15.19c0-4.07-2.75-7.54-7.31-7.54zm37.93.09h-9.12V78.2h-4.65V54.78h-9V51h22.72v3.76l.05.02zM87 41.11h3.39v3.39H87v-3.39z" fill="#fff"/></svg>