<svg width="175" height="149" fill="none" xmlns="http://www.w3.org/2000/svg"><mask id="a" style="mask-type:alpha" maskUnits="userSpaceOnUse" x="0" y="0" width="175" height="150"><path d="M43.751 149h87.498L175 74.503 131.249 0H43.751L0 74.503 43.751 149z" fill="#FFED00"/></mask><g mask="url(#a)"><path fill-rule="evenodd" clip-rule="evenodd" d="M80.885 18.132c.483.623 5.866 7.74 11.965 15.814 9.601 12.715 11.164 14.67 11.661 14.598.316-.047 9.327-1.103 20.025-2.347 10.699-1.244 19.793-2.345 20.209-2.446.733-.178.321-.54-12.572-11.024-7.331-5.963-13.642-11.084-14.025-11.38-.648-.502-1.956-.667-19.312-2.443A8260.408 8260.408 0 0080.114 17c-.058 0 .289.51.771 1.132zm5.243 13.824c-.26.36-1.965 2.787-3.79 5.393-3.794 5.419-3.793 5.415-2.664 8.7 1.898 5.522 8.688 15.165 12.475 17.716 2.014 1.357 2.898 1.5 9.175 1.478 9.986-.034 20.394-1.878 23.66-4.192.301-.214.992-2.298 2.119-6.393.92-3.342 1.653-6.089 1.628-6.104-.025-.015-5.647.588-12.494 1.341a6754.42 6754.42 0 01-13.443 1.47l-.995.102-6.903-9.19a2260.521 2260.521 0 00-7.6-10.082l-.697-.893-.471.654zm58.26 14.359c-.03.065-.389 4.73-.799 10.367l-.746 10.248.928 2.98c.51 1.638 1.013 3.065 1.119 3.17.105.107.623-1.234 1.15-2.978l.96-3.172-1.28-10.367c-.703-5.702-1.303-10.314-1.332-10.248zm-66.406 7.073c-1.945.29-7.351 1.644-9.322 2.336-1.816.637-5.322 2.111-5.66 2.38-.058.047 4.598 13.973 4.722 14.122.025.03.913-.365 1.975-.876 6.027-2.9 13.275-3.68 17.76-1.914 3.61 1.422 5.488 5.227 4.438 8.994-.767 2.749-2.513 5.361-7.086 10.601-7.22 8.273-9.161 12.71-9.161 20.944v3.787h18.858l.148-3.038c.183-3.793.81-6.102 2.508-9.236 1.507-2.781 2.558-4.103 6.695-8.418 7.208-7.517 9.802-12.333 10.106-18.76.128-2.72-.193-5.779-.684-6.509-.168-.25-.873-.216-3.682.175-7.361 1.023-13.406 1.163-16.442.38-2.498-.643-6.116-4.06-10.219-9.648-1.106-1.508-2.39-3.358-2.853-4.111-.463-.754-.98-1.356-1.147-1.338-.168.017-.597.076-.954.129zm4.02 66.907c-2.922.665-5.13 2.343-6.459 4.907-.753 1.453-.803 1.719-.803 4.29 0 2.475.068 2.873.695 4.104 2.1 4.118 6.67 6.138 11.677 5.161 3.113-.607 5.41-2.28 6.781-4.939.77-1.492.818-1.746.818-4.326 0-2.58-.048-2.833-.818-4.326-.45-.872-1.291-2.021-1.871-2.554-2.432-2.234-6.377-3.147-10.02-2.317z" fill="#77B3D1"/></g></svg>