<svg width="34" height="34" fill="none" xmlns="http://www.w3.org/2000/svg"><path d="M29.02 0H4.98A4.986 4.986 0 000 4.98v24.04A4.986 4.986 0 004.98 34h24.04A4.986 4.986 0 0034 29.02V4.98A4.986 4.986 0 0029.02 0zM17.066 25.898c-4.943 0-8.964-4.021-8.964-8.964 0-4.944 4.021-8.965 8.964-8.965 4.944 0 8.965 4.021 8.965 8.965 0 4.943-4.021 8.964-8.965 8.964zm9.961-15.937a2.992 2.992 0 01-2.988-2.988 2.992 2.992 0 012.988-2.989 2.992 2.992 0 012.989 2.989 2.992 2.992 0 01-2.989 2.988z" fill="#fff"/><path d="M27.027 5.977a.997.997 0 10.002 1.993.997.997 0 00-.002-1.993zM17.066 9.96a6.981 6.981 0 00-6.972 6.974 6.981 6.981 0 006.972 6.972 6.981 6.981 0 006.973-6.972 6.981 6.981 0 00-6.973-6.973z" fill="#fff"/></svg>