<svg width="968" height="400" fill="none" xmlns="http://www.w3.org/2000/svg"><path d="M139.039 231.212v-66.334L82.093 131.71l-56.95 33.168v66.334l56.95 33.169 56.946-33.169z" fill="#E21624"/><path d="M216.492 98.564V32.856L159.546 0l-56.951 32.856v65.708l56.951 32.856 56.946-32.856z" fill="#853976"/><path fill-rule="evenodd" clip-rule="evenodd" d="M163.889 149.526v47.603h-9.941v-41.884l-72.006-41.857L9.94 155.245v83.769l72.002 41.857 35.99-20.921 4.996 8.593-40.986 23.826L0 244.733v-95.207l81.942-47.636 81.947 47.636z" fill="#000"/><path d="M262.814 310.775c9.225 3.022 16.541 8.112 21.949 15.269 5.407 6.998 8.111 15.745 8.111 26.242 0 14.474-5.566 25.686-16.7 33.639-11.133 7.793-27.356 11.689-48.668 11.689h-83.022V230.616h78.251c19.722 0 34.91 3.897 45.567 11.69 10.656 7.634 15.984 18.211 15.984 31.73 0 8.27-1.909 15.586-5.726 21.948s-9.066 11.292-15.746 14.791zm-87.316-55.825v46.044h43.897c10.815 0 19.085-1.908 24.811-5.726 5.885-3.976 8.827-9.701 8.827-17.177 0-7.634-2.942-13.359-8.827-17.176-5.726-3.977-13.996-5.965-24.811-5.965h-43.897zm50.1 118.33c24.016 0 36.024-8.031 36.024-24.095s-12.008-24.095-36.024-24.095h-50.1v48.19h50.1zM403.986 400c-17.018 0-32.366-3.658-46.044-10.974-13.678-7.475-24.414-17.734-32.207-30.775-7.793-13.201-11.69-27.913-11.69-44.136 0-16.222 3.897-30.855 11.69-43.896 7.793-13.201 18.529-23.46 32.207-30.776 13.678-7.475 29.026-11.212 46.044-11.212 17.018 0 32.365 3.737 46.043 11.212 13.678 7.316 24.414 17.495 32.207 30.537 7.793 13.042 11.69 27.754 11.69 44.135 0 16.382-3.897 31.094-11.69 44.136-7.793 13.041-18.529 23.3-32.207 30.775C436.351 396.342 421.004 400 403.986 400zm0-27.197c11.133 0 21.153-2.465 30.059-7.395 8.907-5.09 15.905-12.088 20.994-20.994 5.09-9.066 7.635-19.165 7.635-30.299 0-11.133-2.545-21.153-7.635-30.059-5.089-9.066-12.087-16.064-20.994-20.994-8.906-5.09-18.926-7.635-30.059-7.635-11.134 0-21.153 2.545-30.06 7.635-8.907 4.93-15.905 11.928-20.994 20.994-5.09 8.906-7.634 18.926-7.634 30.059 0 11.134 2.544 21.233 7.634 30.299 5.089 8.906 12.087 15.904 20.994 20.994 8.907 4.93 18.926 7.395 30.06 7.395zM589.87 270.219h29.821v127.395H589.87V270.219zm15.03-20.994c-5.408 0-9.941-1.67-13.599-5.01-3.658-3.499-5.487-7.794-5.487-12.883 0-5.089 1.829-9.304 5.487-12.644 3.658-3.499 8.191-5.249 13.599-5.249 5.407 0 9.94 1.67 13.598 5.01 3.658 3.181 5.487 7.237 5.487 12.167 0 5.249-1.829 9.702-5.487 13.36-3.499 3.499-8.032 5.249-13.598 5.249zm126.217 19.562c16.064 0 28.947 4.692 38.649 14.076 9.701 9.384 14.552 23.3 14.552 41.749v73.002h-29.821v-69.185c0-11.133-2.624-19.483-7.873-25.049-5.248-5.726-12.723-8.589-22.425-8.589-10.974 0-19.642 3.34-26.004 10.02-6.362 6.521-9.543 15.984-9.543 28.39v64.413h-29.821V270.219h28.39v16.461c4.93-5.885 11.133-10.338 18.608-13.36 7.475-3.022 15.905-4.533 25.288-4.533zm100.574 130.497c-5.408 0-10.02-1.829-13.837-5.487-3.817-3.817-5.726-8.588-5.726-14.314 0-5.885 1.829-10.656 5.487-14.314 3.817-3.658 8.509-5.487 14.076-5.487s10.179 1.829 13.837 5.487c3.817 3.658 5.726 8.429 5.726 14.314 0 5.726-1.909 10.497-5.726 14.314-3.817 3.658-8.429 5.487-13.837 5.487zm58.244 0c-5.407 0-10.02-1.829-13.837-5.487-3.817-3.817-5.725-8.588-5.725-14.314 0-5.885 1.829-10.656 5.487-14.314 3.817-3.658 8.509-5.487 14.075-5.487 5.567 0 10.179 1.829 13.837 5.487 3.817 3.658 5.726 8.429 5.726 14.314 0 5.726-1.909 10.497-5.726 14.314-3.817 3.658-8.429 5.487-13.837 5.487zm58.245 0c-5.408 0-10.02-1.829-13.837-5.487-3.817-3.817-5.726-8.588-5.726-14.314 0-5.885 1.829-10.656 5.487-14.314 3.817-3.658 8.509-5.487 14.076-5.487 5.566 0 10.179 1.829 13.837 5.487 3.817 3.658 5.725 8.429 5.725 14.314 0 5.726-1.908 10.497-5.725 14.314-3.818 3.658-8.43 5.487-13.837 5.487z" fill="#000"/></svg>