<svg width="48" height="47" fill="none" xmlns="http://www.w3.org/2000/svg"><path d="M28.265 19.259a.85.85 0 01-.853.849.85.85 0 01-.854-.85.85.85 0 01.854-.847.85.85 0 01.853.848zm-6.827-5.939a.85.85 0 01-.854.848.85.85 0 01-.853-.848.85.85 0 01.853-.848c.472 0 .854.38.854.848zm-.854 12.726h1.707v1.697h-1.707v-1.697z" fill="#000"/><path d="M47.04 25.107c.472-.568.96-1.157.96-1.606 0-.449-.492-1.037-.96-1.606a5.032 5.032 0 01-1.288-2.212 5.13 5.13 0 01.454-2.569c.277-.55.398-1.164.348-1.776-.15-.41-.806-.794-1.44-1.164a5.113 5.113 0 01-1.984-1.651 5.098 5.098 0 01-.458-2.554 3.367 3.367 0 00-.29-1.804 3.413 3.413 0 00-1.743-.595 5.171 5.171 0 01-2.445-.886 5.098 5.098 0 01-1.297-2.237 3.38 3.38 0 00-.898-1.612 3.433 3.433 0 00-1.83.03 5.182 5.182 0 01-2.615 0 5.089 5.089 0 01-1.974-1.647C29.1.656 28.606.078 28.166 0a3.31 3.31 0 00-1.686.646 5.213 5.213 0 01-2.482.898 5.216 5.216 0 01-2.483-.895A3.368 3.368 0 0019.83 0c-.439.076-.935.653-1.414 1.212a5.092 5.092 0 01-1.974 1.648 5.182 5.182 0 01-2.615 0 3.426 3.426 0 00-1.83-.03c-.377.217-.641.923-.898 1.607a5.086 5.086 0 01-1.298 2.236 5.156 5.156 0 01-2.445.894 3.409 3.409 0 00-1.741.6 3.371 3.371 0 00-.29 1.802 5.101 5.101 0 01-.457 2.554 5.122 5.122 0 01-1.985 1.652c-.634.37-1.29.753-1.441 1.164a3.355 3.355 0 00.349 1.776c.37.804.526 1.69.453 2.57a5.024 5.024 0 01-1.28 2.207C.488 22.463 0 23.052 0 23.5c0 .449.488 1.038.956 1.606a5.032 5.032 0 011.288 2.212 5.127 5.127 0 01-.454 2.57 3.346 3.346 0 00-.348 1.776c.15.41.806.794 1.44 1.164.792.372 1.476.94 1.984 1.651a5.1 5.1 0 01.458 2.554c-.072.616.029 1.24.29 1.804a3.4 3.4 0 001.742.594c.879.083 1.72.388 2.445.887a5.087 5.087 0 011.297 2.236c.145.608.456 1.165.9 1.608a3.437 3.437 0 001.83-.03 9.428 9.428 0 011.527-.17c.37-.007.737.05 1.087.17.789.372 1.469.94 1.974 1.648.48.56.975 1.136 1.414 1.212a3.306 3.306 0 001.685-.646 5.211 5.211 0 012.483-.888c.891.08 1.746.388 2.482.894a3.33 3.33 0 001.686.647c.439-.076.935-.653 1.414-1.213a5.088 5.088 0 011.974-1.647 5.203 5.203 0 012.615 0 3.45 3.45 0 001.83.03c.377-.217.641-.923.897-1.607a5.095 5.095 0 011.298-2.237 5.16 5.16 0 012.445-.89 3.414 3.414 0 001.742-.6 3.358 3.358 0 00.29-1.802 5.108 5.108 0 01.457-2.554 5.121 5.121 0 011.985-1.652c.634-.37 1.29-.753 1.441-1.164a3.357 3.357 0 00-.349-1.777 5.13 5.13 0 01-.454-2.57 5.035 5.035 0 011.289-2.21zM23.998 43.015c-10.84 0-19.628-8.737-19.628-19.514S13.158 3.987 23.998 3.987s19.628 8.737 19.628 19.514c-.012 10.772-8.793 19.502-19.628 19.514z" fill="#000"/><path d="M23.998 5.685C14.1 5.685 6.077 13.662 6.077 23.5c0 9.84 8.023 17.817 17.921 17.817S41.92 33.341 41.92 23.501c-.011-9.835-8.029-17.805-17.922-17.816z" fill="#000"/><path d="M18.262 25.008c2.525 0 4.283-1.822 4.283-4.75 0-2.93-1.758-4.752-4.284-4.752-2.525 0-4.308 1.846-4.308 4.751 0 2.905 1.783 4.751 4.309 4.751zm-1.51 7.926h2.946l11.835-17.23h-2.946L16.75 32.933zm1.51-9.944c-1.065 0-1.808-.911-1.808-2.733 0-1.821.743-2.732 1.808-2.732 1.089 0 1.807.886 1.807 2.732s-.718 2.733-1.807 2.733zm11.76 10.141c2.526 0 4.31-1.846 4.31-4.75 0-2.905-1.784-4.751-4.31-4.751-2.5 0-4.283 1.846-4.283 4.75 0 2.905 1.783 4.751 4.284 4.751zm0-2.018c-1.064 0-1.807-.886-1.807-2.733 0-1.846.743-2.732 1.808-2.732 1.09 0 1.807.91 1.807 2.732s-.718 2.733-1.807 2.733z" fill="#fff"/></svg>