<svg width="180" height="88" fill="none" xmlns="http://www.w3.org/2000/svg"><path d="M32.934 67.496a.672.672 0 00-.036.07c.814-.025 1.628-.01 2.44.046.985.073 1.72.132 2.23.191.058.01.118.014.177.012.13.011.19.07.2.166a.38.38 0 01-.07.271.32.32 0 01-.214.144c-.757-.048-1.66-.06-2.7-.025-.765.025-1.526.1-2.28.228-.034.333-.07.722-.093 1.185a71.028 71.028 0 00-.096 3.758 3.54 3.54 0 01.807-.485c.38-.17.792-.258 1.208-.263.488-.008.966.137 1.367.415.391.298.711.678.937 1.115.242.479.414.99.51 1.518.096.551.116 1.113.06 1.67a5.347 5.347 0 01-.44 1.66 3 3 0 01-.96 1.22 2.382 2.382 0 01-1.504.475.727.727 0 01-.71-.488.731.731 0 01-.049-.344c.012-.105.048-.153.107-.153a2.02 2.02 0 001.268-.367 2.25 2.25 0 00.733-.948c.16-.414.256-.85.285-1.292a6.496 6.496 0 00-.378-2.619c-.296-.795-.7-1.258-1.197-1.387a2.292 2.292 0 00-1.125.214 2.161 2.161 0 00-.912.7c.014 1.595.048 3.044.132 4.3.084 1.256.19 2.051.342 2.3.037.047.014.084-.06.107a.734.734 0 01-.282 0 .747.747 0 01-.369-.142.7.7 0 01-.296-.332c-.142-.392-.26-1.79-.367-4.185-.107-2.192-.107-4.667-.023-7.395-.55.132-1.04.44-1.4.877-.034.037-.07 0-.13-.093a1.196 1.196 0 01.308-1.54 3.333 3.333 0 011.34-.457.912.912 0 01.083-.152.663.663 0 01.367-.274.952.952 0 01.414 0 .72.72 0 01.297.13c.08.073.102.132.08.169zM44.5 76.43a.16.16 0 01-.095.059 3 3 0 00-1.367.606 3.419 3.419 0 00-.415.32c0 .484 0 .947.023 1.385a164.2 164.2 0 01.013 5.335c-.023 1.27-.143 2.167-.332 2.666-.19.5-.522.757-.985.757-.378 0-.711-.319-1.007-.948a6.634 6.634 0 01-.52-2.404 9.968 9.968 0 01.32-3.07 8.152 8.152 0 011.48-3.01v-.229c0-.178 0-.71-.011-1.595a8.727 8.727 0 01-.178.793c-.07.232-.165.455-.285.665a.513.513 0 01-.414.272 1.229 1.229 0 01-.796-.249 1.436 1.436 0 01-.456-.889 6.922 6.922 0 01-.118-1.8.43.43 0 01.271-.344.69.69 0 01.488-.06.394.394 0 01.26.404v.26c0 .437 0 .84.022 1.208.001.306.033.612.096.911.06.228.142.356.274.356.132 0 .26-.144.367-.44.112-.33.203-.666.27-1.007.085-.367.144-.7.192-.983v-.296a.376.376 0 01.26-.333.766.766 0 01.51-.07c.165.034.249.177.249.403v.556c0 .296 0 .581.011.853v.58c.086-.073.178-.14.274-.2.435-.33.943-.55 1.481-.64a.34.34 0 01.105.023.131.131 0 01.036.095.098.098 0 01-.022.06zm-2.903 9.587c.048-.651.07-1.433.082-2.345.012-.911 0-1.789-.011-2.655-.011-.866-.037-1.518-.048-1.992.004-.138 0-.276-.011-.414a9.659 9.659 0 00-1.14 7.017c.228.911.52 1.367.864 1.367.12-.004.205-.326.264-.978zm7.785-9.765a.107.107 0 01.037.084c.009.407-.081.81-.262 1.174a1.618 1.618 0 01-1.293.852 2.208 2.208 0 01-1.61-.474 2.691 2.691 0 01-.427-.456 4.3 4.3 0 00-.497 1.008c-.025.06-.06.096-.118.096a.07.07 0 01-.048-.012c-.037-.014-.06-.025-.07-.06a.13.13 0 01-.015-.095c.155-.411.354-.805.593-1.174a3.468 3.468 0 01-.33-.9 5.108 5.108 0 01-.13-1.208c0-.107.082-.214.26-.296a.85.85 0 01.51-.084c.164.025.248.155.248.38-.002.401.03.801.096 1.197a4.693 4.693 0 011.563-1.34.138.138 0 01.14.027.14.14 0 01.027.14.105.105 0 01-.07.07 4.832 4.832 0 00-1.596 1.422c.075.297.194.58.355.84.356.5.746.712 1.186.641a1.368 1.368 0 00.995-.7c.16-.323.24-.68.228-1.04a.169.169 0 01.037-.097.137.137 0 01.095-.034.229.229 0 01.096.039zm2.026 1.862a.512.512 0 01-.248.415.911.911 0 01-.497.212c-.167.013-.251-.046-.251-.2-.011-.12-.011-.38-.011-.794 0-.415-.012-.843-.012-1.303V75.34l.023-.14c.036-.167.178-.252.403-.252.652 0 1.14 0 1.459-.011a.521.521 0 01.415.248c.11.147.183.318.212.5.011.166-.06.248-.212.248-.153 0-.429.023-.796.023-.166.013-.319.013-.474.013l-.011 2.145zm7.502-1.897c.022.027.034.06.035.094.004.292-.03.583-.105.866a1.31 1.31 0 01-.38.615 1.053 1.053 0 01-.723.228 1.681 1.681 0 01-.533-.093.636.636 0 01-.379-.415 3.404 3.404 0 01-.13-.759.438.438 0 00-.025.082 3.93 3.93 0 01-.14.558c-.05.164-.127.319-.229.456a.483.483 0 01-.403.178 1.115 1.115 0 01-.996-.438 1.874 1.874 0 01-.308-1.103c0-.556.107-.96.333-1.233a1.187 1.187 0 01.982-.4c.153-.003.3.052.415.152.119.111.227.234.321.367v-.19a.371.371 0 01.26-.343.775.775 0 01.51-.06c.165.037.249.178.249.404v1.043c0 .167.011.368.023.593.005.205.037.408.096.604.047.178.13.273.227.273a.456.456 0 00.392-.227 1.8 1.8 0 00.212-.547 3.58 3.58 0 00.06-.593c0-.034.014-.067.036-.093a.126.126 0 01.094-.037.153.153 0 01.107.018zm-2.347.048c.037-.132.07-.228.085-.321v-.26a1.508 1.508 0 01-.119-.144 2.29 2.29 0 00-.262-.319.476.476 0 00-.32-.14c-.154 0-.261.13-.32.377a4.72 4.72 0 00-.094 1.02 3.4 3.4 0 00.107.936c.07.248.164.378.283.378.118 0 .25-.105.333-.319.077-.233.14-.47.189-.71l.07-.286c.014-.082.037-.153.048-.212zm5.401-1.21a.73.73 0 01.404-.118c.106 0 .21.034.296.096a.37.37 0 01.13.319c0 1.303 0 2.122.048 2.44.011.356.082.534.228.534a.488.488 0 00.426-.271c.1-.16.173-.337.214-.522.065-.3.1-.605.105-.912a.11.11 0 01.048-.096.117.117 0 01.084-.036.11.11 0 01.082.036.13.13 0 01.037.096 4.47 4.47 0 01-.119.983 1.934 1.934 0 01-.392.758.877.877 0 01-.711.322.962.962 0 01-.57-.203 1.007 1.007 0 01-.367-.652 5.41 5.41 0 01-.107-.937c-.011-.212-.011-.474-.023-.781a3.276 3.276 0 00-.118.403c-.07.296-.13.604-.178.9-.048.26-.096.497-.141.7a1.52 1.52 0 01-.178.426.604.604 0 01-.415.2.58.58 0 01-.31-.081.888.888 0 01-.248-.19.275.275 0 01-.093-.154c0-.012.01-.023.022-.035a1.79 1.79 0 00.63-.784c.2-.4.4-.83.578-1.267.132-.319.25-.604.356-.83.104-.225.191-.318.262-.332 0 0 0-.011.02-.011zm10.042 1.197a.14.14 0 01.034.096c.002.312-.037.623-.118.925-.072.326-.246.62-.497.841-.18.172-.415.273-.663.285-.456 0-.748-.119-.889-.37-.141-.25-.214-.745-.214-1.526v-.559a3.496 3.496 0 00-.06-.544c-.034-.167-.093-.249-.177-.249-.084 0-.212.178-.296.522-.085.344-.178.745-.249 1.172-.023.155-.048.296-.07.428a5.1 5.1 0 01-.156.793c-.059.228-.177.333-.33.333a1.055 1.055 0 01-.547-.107c-.105-.06-.19-.228-.228-.5a17.361 17.361 0 01-.107-1.29V76.3c-.011-.153-.011-.308-.025-.486a2.333 2.333 0 00-.06-.455c-.034-.13-.081-.2-.152-.2-.155 0-.285.165-.367.507a8.785 8.785 0 00-.228 1.14c-.051.37-.123.738-.214 1.1-.084.322-.2.488-.344.488a.547.547 0 01-.486-.214c-.107-.13-.166-.426-.203-.889a40.08 40.08 0 01-.093-2.074v-.227c0-.13.094-.228.274-.308.153-.08.33-.1.496-.06.167.035.249.167.249.39-.012.107-.012.203-.023.296-.106 1.4-.119 2.1-.036 2.1.025 0 .047-.048.07-.155.023-.108.037-.228.06-.379a9.13 9.13 0 01.177-.948 3.31 3.31 0 01.344-.9.71.71 0 01.64-.392 1.21 1.21 0 01.616.118.746.746 0 01.274.522c.045.394.065.79.059 1.185v.474a6.108 6.108 0 000 .652 3.85 3.85 0 00.07-.307c.037-.155.071-.322.108-.5v-.059c.059-.319.118-.651.203-.97.066-.28.173-.548.319-.796a.622.622 0 01.556-.32 1.22 1.22 0 01.617.12.745.745 0 01.271.521c.046.394.066.79.06 1.185v.142a6.68 6.68 0 00.036 1.091c.023.228.119.342.274.342a.534.534 0 00.426-.26 2.05 2.05 0 00.26-.57 3.35 3.35 0 00.107-.852.133.133 0 01.036-.095.135.135 0 01.094-.035.14.14 0 01.102.03zm4.611-.034a.108.108 0 01.034.082c0 .194-.032.386-.093.57-.06.186-.158.359-.285.508a1.7 1.7 0 01-.974.592 2.427 2.427 0 01-1.1 0 1.655 1.655 0 01-.866-.485 1.395 1.395 0 01-.356-1.007 1.198 1.198 0 01.474-.996c.32-.254.718-.388 1.126-.379.24-.016.478.06.663.215a.574.574 0 01.19.508.775.775 0 01-.39.499c-.166.09-.347.15-.534.178a3.873 3.873 0 01-.474.034h-.025c-.023.485.085.83.31 1.018a1.022 1.022 0 00.923.167 1.61 1.61 0 00.843-.497c.201-.267.31-.592.308-.925a.157.157 0 01.034-.094.131.131 0 01.096-.036.228.228 0 01.096.048zm-1.518-.427c-.037-.095-.144-.154-.296-.19a.683.683 0 00-.456.106.789.789 0 00-.296.57h.07c.263.005.523-.052.76-.166.181-.119.254-.22.218-.32zm7.513.593a.116.116 0 01-.07.07c-.107.035-.215.06-.322.094a26.74 26.74 0 00-1.34.44c-.017.34-.072.679-.164 1.008a1.233 1.233 0 01-.44.651 1.42 1.42 0 01-.863.228.617.617 0 01-.57-.355c-.13-.228-.037-.51.262-.83a4.56 4.56 0 01.697-.499 9.903 9.903 0 000-.912 6.777 6.777 0 00-.082-.806c-.048-.228-.107-.33-.177-.33-.144 0-.274.188-.404.58-.14.435-.25.878-.333 1.327-.105.496-.189.936-.248 1.315l-.023.203c0 1.16-.025 2.014-.025 2.57 0 .456 0 1.03-.011 1.696a.27.27 0 01-.19.26.51.51 0 01-.366.036.296.296 0 01-.203-.296c-.012-.249-.012-.5-.023-.76-.07-1.765-.107-4.113-.107-7.028a.421.421 0 01.273-.33.784.784 0 01.497-.048c.155.048.228.178.25.403v.023a45.848 45.848 0 00-.072 1.755c.08-.36.178-.717.296-1.067a2.91 2.91 0 01.415-.83.684.684 0 01.581-.332.72.72 0 01.604.296c.164.232.281.494.344.77.075.335.107.677.096 1.02.438-.153.852-.297 1.256-.415.107-.034.214-.06.319-.094.036-.013.059 0 .096.012a.092.092 0 01.06.07.135.135 0 01-.013.105zM79.65 78.28c.05-.203.086-.409.104-.617a.498.498 0 01.014-.142c-.174.107-.337.23-.488.367-.189.19-.26.344-.212.474a.25.25 0 00.249.19.337.337 0 00.333-.272zm8.141-2.11c.022.027.035.06.037.096 0 .722-.107 1.255-.31 1.595-.203.34-.483.56-.782.538a1.06 1.06 0 01-.474-.133.827.827 0 01-.33-.248 1.899 1.899 0 01-.322-.96c-.05.24-.137.472-.26.684a.628.628 0 01-.558.271 1.243 1.243 0 01-.793-.248 1.436 1.436 0 01-.456-.889 7.025 7.025 0 01-.118-1.8.43.43 0 01.273-.344.72.72 0 01.497-.06c.155.048.228.178.248.404v.26c0 .437.014.84.025 1.207 0 .307.03.612.094.912.06.228.144.356.273.356.19 0 .333-.133.438-.392.104-.299.169-.61.191-.926.035-.355.046-.683.046-.993a.38.38 0 01.262-.344c.157-.08.337-.1.508-.06.167.048.251.178.251.404 0 1.171.06 1.942.164 2.31a.609.609 0 00.107.213.189.189 0 00.119.059.31.31 0 00.189-.07.913.913 0 00.191-.26c.092-.189.159-.388.2-.593.052-.294.075-.591.072-.889 0-.035.013-.069.036-.096a.137.137 0 01.093-.036.168.168 0 01.09.032zm2.844 1.317a.633.633 0 01-.38.214c-.034.684-.26 1.03-.684 1.03a.621.621 0 01-.592-.26 1.16 1.16 0 01-.167-.615.09.09 0 01.037-.084.17.17 0 01.07-.023c.034 0 .067.013.094.034a.116.116 0 01.048.108c.009.131.041.26.095.38a.342.342 0 00.356.228c.285 0 .456-.26.497-.782a1.7 1.7 0 01-.545-.093.85.85 0 01-.456-.38 1.502 1.502 0 01-.189-.842 1.718 1.718 0 01.19-.889c.112-.201.287-.361.498-.455.207-.086.428-.13.652-.13a.684.684 0 01.497.214.294.294 0 01.107-.096c.12-.078.26-.12.403-.118a.51.51 0 01.297.096.371.371 0 01.13.319c0 1.303 0 2.121.047 2.44.012.356.082.534.228.534a.488.488 0 00.427-.271c.101-.16.173-.337.212-.522.066-.3.102-.605.107-.912a.106.106 0 01.047-.096.11.11 0 01.128-.027.117.117 0 01.039.027.14.14 0 01.034.096c-.002.33-.042.66-.118.982-.071.28-.205.539-.39.76a.877.877 0 01-.711.32.957.957 0 01-.57-.202 1.008 1.008 0 01-.367-.652 5.527 5.527 0 01-.07-.333zm-.047-.604a40.96 40.96 0 01-.023-1.41.194.194 0 01-.025-.06.37.37 0 00-.297-.2.326.326 0 00-.319.177 1.107 1.107 0 00-.118.456c0 .178-.025.367-.025.545-.011.278.013.557.073.83a.29.29 0 00.296.248.355.355 0 00.367-.228c.033-.092.056-.186.07-.283v-.075zm15.109-4.943c.049-2.28.168-3.702.356-4.269a.865.865 0 01.228-.353.65.65 0 01.285-.155.43.43 0 01.212.011.076.076 0 01.045.044.093.093 0 01.003.033.082.082 0 01-.012.03c-.226.426-.357 1.291-.392 2.596a47.284 47.284 0 00.037 3.555c.07.012.155.012.227.023.16.039.3.136.39.274.11.136.18.3.203.474.011.152-.059.228-.228.228s-.367-.037-.545-.06c.094 1.505.212 2.845.367 4.005.155 1.221.308 1.955.474 2.206.037.045 0 .093-.059.153a.762.762 0 01-.7.13.646.646 0 01-.366-.26 1.37 1.37 0 01-.215-.64 98.311 98.311 0 01-.307-5.653 12.46 12.46 0 00-3.449.19c-.036 3.19-.177 5.143-.426 5.888a.743.743 0 01-.285.344.852.852 0 01-.367.13c-.129.014-.227.025-.296.025-.44 0-.867-.403-1.28-1.21a5.801 5.801 0 01-.63-2.689 3.028 3.028 0 01.607-1.766 3.945 3.945 0 011.789-1.352 66.714 66.714 0 00-.215-4.195c-.104-1.22-.248-1.967-.403-2.216-.034-.047 0-.095.062-.155a.834.834 0 01.307-.13.788.788 0 01.404.012c.148.05.277.145.367.273.123.195.185.422.177.652.13 1.956.189 3.793.189 5.488a12.066 12.066 0 013.437-.214c-.002-.5-.002-.973.009-1.447zm-4.533 7.737c.071-.615.119-1.367.153-2.263.034-.896.048-1.778.048-2.667a4.65 4.65 0 00-1.53.853 1.645 1.645 0 00-.544 1.28 5.995 5.995 0 00.545 2.508c.367.818.711 1.221 1.043 1.221.114.005.208-.303.285-.932zm12.51-3.459c.021.026.033.06.034.093.005.292-.031.584-.107.866a1.29 1.29 0 01-.378.616 1.055 1.055 0 01-.723.227 1.688 1.688 0 01-.533-.093.641.641 0 01-.381-.415 3.616 3.616 0 01-.13-.759.774.774 0 00-.022.082c-.034.19-.082.376-.144.559a1.473 1.473 0 01-.228.456.481.481 0 01-.403.177c-.456 0-.796-.14-.996-.437a1.876 1.876 0 01-.308-1.103c0-.556.107-.96.331-1.233a1.192 1.192 0 01.984-.401c.153-.002.3.052.415.152.119.111.226.234.319.367v-.189a.376.376 0 01.262-.344.77.77 0 01.508-.06c.167.037.251.178.251.404v1.044c0 .166.011.367.023.593.004.204.037.407.096.603.045.178.129.274.227.274a.453.453 0 00.39-.228 1.74 1.74 0 00.214-.547c.035-.196.055-.394.06-.593a.159.159 0 01.034-.093.131.131 0 01.096-.036.152.152 0 01.109.018zm-2.347.048a3.23 3.23 0 00.082-.322v-.26c-.035-.036-.071-.084-.119-.143a2.095 2.095 0 00-.26-.32.482.482 0 00-.319-.14c-.155 0-.262.13-.321.378a4.773 4.773 0 00-.094 1.019c-.007.315.028.63.105.936.073.249.167.379.285.379.119 0 .249-.105.333-.32.077-.232.14-.47.189-.71l.071-.285c.011-.082.036-.153.048-.212zm5.392-1.211a.727.727 0 01.403-.118.521.521 0 01.296.096.362.362 0 01.104.143.364.364 0 01.026.176c0 1.303.011 2.122.048 2.44 0 .356.082.534.228.534a.488.488 0 00.426-.271c.101-.16.173-.337.212-.522.067-.3.103-.605.107-.912a.103.103 0 01.011-.054.1.1 0 01.037-.041.108.108 0 01.082-.037.117.117 0 01.084.036.138.138 0 01.035.096c-.002.331-.042.66-.119.983a1.898 1.898 0 01-.39.758.867.867 0 01-.711.322.958.958 0 01-.57-.203 1.007 1.007 0 01-.366-.652 5.266 5.266 0 01-.108-.937c0-.212 0-.474-.022-.781-.05.131-.089.266-.119.403-.071.296-.13.604-.178.9-.048.26-.095.497-.143.7-.037.15-.097.294-.178.426a.594.594 0 01-.415.2.574.574 0 01-.307-.081.86.86 0 01-.249-.19.284.284 0 01-.096-.154c0-.012.012-.023.025-.035.28-.196.497-.468.627-.784.203-.4.404-.83.581-1.267.13-.319.249-.604.356-.83.107-.225.189-.318.262-.332.009 0 .009-.011.021-.011zm6.78 1.27a.137.137 0 010 .093 1.23 1.23 0 01-.497.618 1.99 1.99 0 01-.795.26 1.39 1.39 0 01-.342.522.86.86 0 01-.57.2 1.495 1.495 0 01-.841-.2.878.878 0 01-.367-.51 2.549 2.549 0 01-.096-.685.236.236 0 01.024-.107.236.236 0 01.072-.084.941.941 0 01-.048-.52c.13-.606.522-.877 1.174-.83a1.136 1.136 0 01.971.684c.178.398.216.845.107 1.268a1.137 1.137 0 00.971-.684.08.08 0 01.02-.043.09.09 0 01.039-.028.115.115 0 01.096 0c.034-.002.068.01.082.046zm-1.482-.048a1.516 1.516 0 00-.248-.684.589.589 0 00-.497-.285.39.39 0 00-.344.167.804.804 0 00-.155.355 1.29 1.29 0 000 .51.786.786 0 00.321.475c.262.154.561.233.864.228.072-.249.092-.51.057-.766h.002zm-.378 1.326a.885.885 0 00.212-.307 2.968 2.968 0 01-.994-.178c.014.15.063.297.142.426a.358.358 0 00.332.178.4.4 0 00.306-.119h.002zm3.884.511a.515.515 0 01-.249.415.908.908 0 01-.496.212c-.167.013-.249-.046-.249-.2-.013-.12-.013-.38-.013-.794 0-.415-.012-.843-.012-1.303V75.34l.023-.14c.036-.167.178-.252.403-.252.652 0 1.14 0 1.459-.011a.52.52 0 01.415.248c.11.147.183.318.212.5.013.166-.057.248-.212.248s-.426.023-.796.023c-.164.013-.319.013-.474.013l-.011 2.145zm7.547-1.944a.166.166 0 01.034.095c0 .723-.107 1.256-.307 1.596-.201.34-.486.556-.782.533a1.05 1.05 0 01-.474-.132.825.825 0 01-.333-.249 1.903 1.903 0 01-.319-.96 2.3 2.3 0 01-.262.685.628.628 0 01-.556.27 1.24 1.24 0 01-.793-.248 1.427 1.427 0 01-.456-.888 6.884 6.884 0 01-.118-1.8.433.433 0 01.271-.345.725.725 0 01.499-.06c.153.049.228.178.248.404v.26c0 .438 0 .84.023 1.208.001.306.033.612.096.912.059.227.141.355.273.355.189 0 .331-.132.438-.392.104-.299.168-.61.189-.925a9.7 9.7 0 00.048-.994.38.38 0 01.26-.344.75.75 0 01.51-.06c.167.049.249.178.249.404 0 1.171.059 1.942.166 2.311.02.077.057.15.107.212a.185.185 0 00.119.06.31.31 0 00.189-.071.856.856 0 00.189-.26c.093-.188.161-.387.203-.593.051-.293.074-.59.07-.889a.153.153 0 01.037-.095.132.132 0 01.093-.037.166.166 0 01.089.037zm14.587 4.1a.572.572 0 01-.155.248c-.116.11-.252.195-.401.25-.217.09-.45.13-.684.12-.456 0-1.019-.229-1.67-.7a16.454 16.454 0 01-2.026-1.719 34.502 34.502 0 01-1.945-2.062c.035 1.09.083 2.014.167 2.773.084.76.164 1.233.271 1.411.025.048 0 .094-.071.153a.764.764 0 01-.319.118.7.7 0 01-.414-.022.576.576 0 01-.356-.285 1.267 1.267 0 01-.155-.652c0-1.719.023-3.236.037-4.54-.334-.408-.639-.84-.912-1.29-.034-.06-.023-.143.025-.273.038-.14.098-.272.178-.392a.81.81 0 01.228-.283c.082-.06.141-.06.2.023.085.13.178.285.285.456.082-3.45.248-5.43.522-5.962a.848.848 0 01.285-.356.857.857 0 01.367-.13.712.712 0 01.296.023c.071.037.093.07.071.118-.249.415-.426 1.293-.545 2.608a52.98 52.98 0 00-.189 4.362 13.635 13.635 0 003.288-3.161c.912-1.216 1.386-2.294 1.423-3.236 0-.119.07-.167.189-.144a.9.9 0 01.392.24c.141.158.25.343.319.544.068.245.06.505-.023.745-.251.711-.887 1.6-1.91 2.667a18.308 18.308 0 01-3.605 2.908 31.69 31.69 0 002.158 2.691c.723.83 1.547 1.567 2.452 2.193.818.556 1.541.71 2.181.485.028-.011.046.023.046.07zm5.219-4.053c.022.027.035.06.037.094.004.292-.033.583-.107.866-.067.237-.199.45-.381.615a1.052 1.052 0 01-.722.228 1.687 1.687 0 01-.534-.093.635.635 0 01-.378-.415 3.37 3.37 0 01-.13-.759.47.47 0 00-.025.082c-.032.19-.08.376-.141.558a1.441 1.441 0 01-.228.456.484.484 0 01-.404.178 1.117 1.117 0 01-.996-.438 1.875 1.875 0 01-.307-1.103c0-.556.107-.96.332-1.233a1.197 1.197 0 01.983-.4.62.62 0 01.415.152c.118.111.226.234.321.367v-.19a.368.368 0 01.26-.343.773.773 0 01.51-.06c.167.037.249.178.249.404v1.043c0 .167 0 .368.022.593.006.205.038.408.096.604.048.178.13.273.228.273a.451.451 0 00.392-.227c.1-.17.172-.355.212-.547a3.57 3.57 0 00.059-.593.147.147 0 01.037-.093.124.124 0 01.093-.036.152.152 0 01.107.017zm-2.347.048a2.97 2.97 0 00.084-.321v-.26c-.036-.036-.07-.084-.118-.144a2.377 2.377 0 00-.262-.319.478.478 0 00-.32-.14c-.154 0-.262.13-.319.377a4.709 4.709 0 00-.095 1.02c-.007.315.029.63.107.936.07.248.166.378.282.378.117 0 .251-.105.333-.319a5.85 5.85 0 00.189-.71l.073-.286c.012-.082.034-.153.046-.212zm4.635 2.475c-1.258 0-1.103-2.748.77-2.322-.144-.522-.51-.97-1.185-.97-.144 0-.084-1.02.697-1.02 1.448 0 1.981 4.312-.282 4.312zm.829-2.05c-1.139-.427-1.47 1.74-.866 1.766.641.002.985-.946.866-1.764v-.003zm7.678-.306a.108.108 0 01-.026.044.1.1 0 01-.044.027c-.107.034-.214.06-.322.093-.437.132-.875.274-1.337.44a4.596 4.596 0 01-.167 1.008 1.228 1.228 0 01-.437.651 1.435 1.435 0 01-.866.228.623.623 0 01-.57-.355c-.13-.228-.034-.51.262-.83a4.52 4.52 0 01.7-.5v-.91a6.61 6.61 0 00-.085-.807c-.045-.228-.105-.33-.177-.33-.142 0-.272.188-.402.58a9.917 9.917 0 00-.332 1.327c-.107.496-.189.936-.249 1.315l-.025.203c0 1.16-.023 2.014-.023 2.57v1.696a.268.268 0 01-.191.26.51.51 0 01-.367.036.292.292 0 01-.2-.296c0-.249 0-.5-.026-.76-.07-1.765-.104-4.113-.104-7.028a.418.418 0 01.271-.33.79.79 0 01.499-.048c.153.048.228.178.248.403v.023a40.429 40.429 0 00-.07 1.755c.078-.36.177-.717.296-1.067.091-.297.231-.578.415-.83a.678.678 0 01.579-.332.722.722 0 01.606.296c.162.233.278.494.342.77.076.335.108.677.095 1.02.44-.153.853-.297 1.256-.415.107-.034.214-.06.322-.094.034-.013.059 0 .093.012.034.011.048.034.059.07a.119.119 0 01-.023.105zm-2.962 1.896c.051-.202.087-.409.107-.617a.557.557 0 010-.142 3.098 3.098 0 00-.486.367c-.189.19-.262.344-.214.474a.248.248 0 00.249.19.337.337 0 00.344-.272zm9.15-1.659c.005.331-.035.662-.118.982-.155.582-.522 1.08-1.103 1.08-.404 0-.818-.239-.937-.854a9.349 9.349 0 01-.13-1.67c0 .022-.023.034-.036.059a2.06 2.06 0 01-.401.426c.074.141.119.296.13.456.082.83-.559 1.67-1.459 1.634-1.067 0-1.233-.627-1.233-.983-.023-.273-.034-1.659-.034-2.358 0-.427 1.03-.684 1.03 0l-.011 2.279c.011.369.047.58.166.58.403 0 .545-.683.52-1.066a1.74 1.74 0 00-.023-.26c-.759-.07-.511-.959.07-.888.216.078.42.186.607.319a1.454 1.454 0 00.674-.971v-.037c0-.426 1.019-.683 1.019 0 0 1.304 0 2.04.048 2.441.048.401.07.534.228.534.33 0 .556-.474.64-.794.067-.299.102-.604.105-.911a.129.129 0 01.118-.132.133.133 0 01.121.083c.007.017.01.034.009.051zM11.408 20.917a1.224 1.224 0 01-.456.239c-.203.058-.417.07-.626.036-.24-.05-.456-.18-.611-.369a1.948 1.948 0 01-.397-.996 151.889 151.889 0 01-.756-6.055 20.88 20.88 0 00-2.918.148 128.096 128.096 0 01-1.807 5.39c-.11.336-.3.64-.554.886a1.123 1.123 0 01-.665.258 1.226 1.226 0 01-.609-.148 1.041 1.041 0 01-.405-.333c-.094-.11-.094-.203-.04-.258.243-.202.594-.793 1.054-1.79.46-.999.96-2.234 1.495-3.69-1.238.312-2.122.884-2.694 1.716-.057.054-.112.018-.185-.13a1.38 1.38 0 01-.184-.609c-.034-.288.004-.58.11-.85.124-.347.35-.648.647-.866.663-.48 1.623-.757 2.878-.832A97.715 97.715 0 007.03 5.095c.647-2.436.868-4.079.684-4.945a.105.105 0 01.093-.148.613.613 0 01.333.073c.138.086.258.199.35.332.122.188.192.404.204.627v.02c-.037.11-.018 1.127.054 3.064.073 1.937.388 4.854.942 8.73l1.14.112c.202.019.296.11.314.228a.588.588 0 01-.112.424.487.487 0 01-.33.228 13.354 13.354 0 00-.869-.036c.315 1.823.609 3.38.912 4.615.303 1.235.536 2.012.738 2.251.055.069.019.153-.075.247zm-2.963-8.178c-.239-2.456-.442-4.745-.572-6.837-.442 1.901-1.05 4.153-1.823 6.719.761.025 1.575.061 2.404.118h-.009zm7.82 18.807c.258.48.294.912.11 1.256-.352-.297-.924-.5-1.753-.609-.908-.1-1.821-.15-2.735-.148-.887 0-1.773.018-2.657.055-.297 1.736-.456 4.043-.481 6.921-.025 2.879.036 5.556.203 8.013.527.848.84 1.81.911 2.806 0 .978-.184 1.595-.535 1.846a.868.868 0 01-1.108-.037 1.728 1.728 0 01-.663-1.33c-.075-1.496-.13-2.963-.166-4.392a47.415 47.415 0 00-2.621-3.19 39.673 39.673 0 01-2.972-3.752 7.953 7.953 0 01-1.035-2.067 5.609 5.609 0 01-.296-1.735 2.915 2.915 0 011.09-2.279 8.136 8.136 0 012.916-1.477 19.514 19.514 0 014.062-.756c.157-.122.34-.205.535-.242.147-.018.296-.018.442 0 .13.037.185.094.203.148a26.271 26.271 0 012.088-.036c.911 0 1.823.036 2.748.112.864.114 1.436.414 1.714.893zm-8.382.629a17.42 17.42 0 00-4.522.793c-1.256.424-2.012 1.071-2.279 1.955-.112.352-.093.869.073 1.516a6.671 6.671 0 001.071 2.252 44.588 44.588 0 002.963 3.58 67.31 67.31 0 012.16 2.473c-.044-5.976.134-10.165.534-12.569zm4.43 29.753a6.067 6.067 0 011.31 2.363c.32 1.043.5 2.122.536 3.212a15.042 15.042 0 01-.257 3.507 12.57 12.57 0 01-1.053 3.213 6.865 6.865 0 01-1.883 2.353 4.275 4.275 0 01-2.735.911 2.885 2.885 0 01-1.107-.203c.057 1.217.13 2.252.241 3.102.112.85.24 1.383.406 1.623.055.075.018.148-.093.241-.144.097-.308.16-.479.185-.21.034-.425.02-.629-.039a.91.91 0 01-.554-.442 1.796 1.796 0 01-.276-1.014c-.166-4.633-.13-8.16.073-10.616.203-2.457.481-4.022.814-4.743a1.238 1.238 0 011.028-.756c.153-.02.308-.008.456.036.109.055.145.112.109.185-.456.832-.793 2.381-.96 4.688a67.705 67.705 0 00-.148 6.978c.265.103.548.154.832.148a2.794 2.794 0 002.177-1.089 8.503 8.503 0 001.476-2.785c.38-1.164.64-2.364.778-3.58.145-1.189.181-2.388.11-3.583a9.492 9.492 0 00-.537-2.77c-.293-.717-.702-1.068-1.198-1.068-.793 0-1.716.37-2.77 1.09a12.355 12.355 0 00-2.916 2.896 11.414 11.414 0 00-1.883 4.007 7.922 7.922 0 00.203 4.485c.018.11-.037.184-.203.228-.21.061-.43.074-.645.036a1.55 1.55 0 01-.72-.312 1.367 1.367 0 01-.456-.775 8.205 8.205 0 01.075-3.065 13.446 13.446 0 011.126-3.341 14.49 14.49 0 011.971-3.052 10.164 10.164 0 012.64-2.279 5.985 5.985 0 013.065-.866 2.805 2.805 0 012.076.891z" fill="#1D4545"/><path d="M176.219 74.894a324.408 324.408 0 00-3.806-4.203l-3.829-4.187-3.858-4.163-3.874-4.146-3.897-4.134-3.92-4.118-3.936-4.103-1.664-1.734-2.154 1.557-5.415 3.917-5.394 3.932-5.379 3.954-2.051 1.518-4.841-7.172-7.014-10.256-7.081-10.226-7.145-10.192-3.647-5.19-3.6 5.242c-2.029 2.963-4.016 5.926-6.015 8.888-1.999 2.963-4.009 5.926-5.976 8.91l-5.925 8.929-3.26 4.956-2.435-2.333-6.106-5.803-2.99-2.846-2.461 3.017c-2.703 3.307-5.431 6.61-8.107 9.923l-4.032 4.975-1.966 2.455-1.858-2.16-4.134-4.773-1.705-1.97L35.15 55.2l-5.117 5.926c-1.693 1.983-3.398 3.96-5.068 5.962l-5.032 5.99c-1.65 2.014-3.325 4.013-4.95 6.046 2-1.767 3.951-3.57 5.925-5.352l5.85-5.401c1.956-1.798 3.875-3.621 5.81-5.435l3.872-3.667 2.247 3.126 3.658 5.05 1.905 2.633 2.384-2.553 4.42-4.726 4.386-4.748a949.545 949.545 0 005.992-6.524l3.088 3.21 5.83 6.02 3.434 3.544 2.835-4.048 6.172-8.809 6.112-8.84c2.052-2.94 4.048-5.907 6.072-8.86l2.484-3.647 3.539 4.966 7.293 10.114 7.361 10.08 7.43 10.042 2.359 3.19 3.058-2.507 5.121-4.195 5.115-4.207 5.096-4.223 3.206-2.678 2.341 2.092 4.309 3.815 4.331 3.802 4.343 3.787 4.369 3.77 4.394 3.749c1.463 1.251 2.931 2.507 4.417 3.733 1.486 1.226 2.963 2.477 4.46 3.699-1.253-1.41-2.52-2.824-3.781-4.232z" fill="#1D4545"/><path d="M15.121 76.193l-.348-.297 21.596-25.498 7.776 8.952 16.44-21.101L71.572 48.7l25.967-37.023 30.218 43.62 20.267-14.088.137.142 31.569 33.078-.33.314-31.435-32.937-20.322 14.126-30.106-43.457L71.64 49.393 60.637 38.928l-16.47 21.14L36.37 51.1 15.12 76.193zm80.232 3.097a.798.798 0 100-1.595.798.798 0 000 1.595zm76.803 0a.798.798 0 100-1.595.798.798 0 000 1.595zm-36.237 0a.798.798 0 100-1.595.798.798 0 000 1.595z" fill="#1D4545"/></svg>