<svg width="34" height="34" fill="none" xmlns="http://www.w3.org/2000/svg"><g clip-path="url(#clip0_877_3550)"><path d="M33.72 4.502a1.231 1.231 0 00-1.377-.376L1.155 15.396A1.746 1.746 0 00.013 16.83c-.08.655.208 1.29.75 1.655l4.457 3.043c.432.295.988.327 1.45.083l9.67-5.1-7.536 5.628a1.414 1.414 0 00-.565 1.127v5.213a1.463 1.463 0 002.271 1.219l3.387-2.247 3.33 2.271a1.756 1.756 0 002.48-.524L33.819 5.931a1.235 1.235 0 00-.099-1.43z" fill="#fff"/></g><defs><clipPath id="clip0_877_3550"><path fill="#fff" d="M0 0h34v34H0z"/></clipPath></defs></svg>