<svg width="34" height="34" fill="none" xmlns="http://www.w3.org/2000/svg"><g clip-path="url(#clip0_877_3556)"><path d="M33.697 24.603c-.091-.153-.657-1.381-3.377-3.906-2.848-2.644-2.465-2.214.965-6.786 2.089-2.784 2.924-4.484 2.663-5.21-.249-.693-1.785-.51-1.785-.51l-5.11.03s-.378-.052-.66.116c-.274.166-.45.548-.45.548s-.81 2.155-1.89 3.987c-2.276 3.866-3.188 4.07-3.56 3.83-.865-.56-.648-2.249-.648-3.447 0-3.747.568-5.309-1.107-5.713-.557-.134-.965-.223-2.387-.238-1.823-.019-3.368.007-4.241.434-.583.285-1.031.92-.757.956.338.045 1.103.206 1.509.759.525.712.506 2.314.506 2.314s.301 4.41-.704 4.958c-.69.376-1.636-.391-3.666-3.9C7.96 11.03 7.173 9.043 7.173 9.043s-.151-.37-.42-.568c-.328-.24-.787-.316-.787-.316l-4.858.03s-.73.02-.997.337c-.238.283-.02.865-.02.865s3.805 8.898 8.11 13.384c3.951 4.113 8.435 3.843 8.435 3.843h2.032s.614-.068.926-.406c.29-.31.279-.893.279-.893s-.04-2.726 1.226-3.128c1.247-.395 2.85 2.635 4.548 3.802 1.284.882 2.259.688 2.259.688l4.541-.063s2.376-.147 1.25-2.015z" fill="#FFF1F5"/></g><defs><clipPath id="clip0_877_3556"><path fill="#fff" d="M0 0h34v34H0z"/></clipPath></defs></svg>