<svg width="497" height="456" fill="none" xmlns="http://www.w3.org/2000/svg"><ellipse cx="235" cy="235" rx="181" ry="182" fill="url(#paint0_radial_869_1401)"/><path d="M168 390v44l38.089 22 38.089-22v-44l-38.089-22L168 390zm84 0v44l38.089 22 38.089-22v-44l-38.089-22L252 390zm-42-74v44l38.089 22 38.089-22v-44l-38.089-22L210 316zm-84 0v44l38.089 22 38.089-22v-44l-38.089-22L126 316zm-84 0v44l38.09 22 38.088-22v-44l-38.089-22L42 316zm252 0v44l38.089 22 38.089-22v-44l-38.089-22L294 316zm84 0v44l38.089 22 38.089-22v-44l-38.089-22L378 316zm-210-73v44l38.089 22 38.089-22v-44l-38.089-22L168 243zm-84 0v44l38.089 22 38.089-22v-44l-38.089-22L84 243zm-84 0v44l38.09 22 38.088-22v-44L38.09 221 0 243zm252 0v44l38.089 22 38.089-22v-44l-38.089-22L252 243zm168 0v44l38.089 22 38.089-22v-44l-38.089-22L420 243zm-84 0v44l38.089 22 38.089-22v-44l-38.089-22L336 243zm-126-74v44l38.089 22 38.089-22v-44l-38.089-22L210 169zm-84 0v44l38.089 22 38.089-22v-44l-38.089-22L126 169zm-84 0v44l38.09 22 38.088-22v-44l-38.089-22L42 169zm252 0v44l38.089 22 38.089-22v-44l-38.089-22L294 169zm84 0v44l38.089 22 38.089-22v-44l-38.089-22L378 169zM168 96v44l38.089 22 38.089-22V96l-38.089-22L168 96zm-84 0v44l38.089 22 38.089-22V96l-38.089-22L84 96zM0 96v44l38.09 22 38.088-22V96L38.09 74 0 96zm252 0v44l38.089 22 38.089-22V96l-38.089-22L252 96zm84 0v44l38.089 22 38.089-22V96l-38.089-22L336 96zM210 22v44l38.089 22 38.089-22V22L248.089 0 210 22zm-84 0v44l38.089 22 38.089-22V22L164.089 0 126 22zm-84 0v44l38.09 22 38.088-22V22L80.089 0 42 22zm252 0v44l38.089 22 38.089-22V22L332.089 0 294 22z" fill="#fff"/><defs><radialGradient id="paint0_radial_869_1401" cx="0" cy="0" r="1" gradientUnits="userSpaceOnUse" gradientTransform="matrix(0 182 -181 0 235 235)"><stop stop-color="#FFED00"/><stop offset="1" stop-color="#FFED00" stop-opacity="0"/></radialGradient></defs></svg>