<svg width="242" height="382" fill="none" xmlns="http://www.w3.org/2000/svg"><ellipse cx="10" cy="182" rx="160" ry="161" transform="rotate(-180 10 182)" fill="url(#paint0_radial_869_1579)"/><path d="M31.178 66V22L-6.91 0-45 22v44l38.09 22 38.088-22zm84 0V22L77.089 0 39 22v44l38.09 22 38.088-22zm84 0V22L161.089 0 123 22v44l38.089 22 38.089-22zm-126 73V95L35.09 73-3 95v44l38.09 22 38.088-22zm84 0V95l-38.089-22L81 95v44l38.089 22 38.089-22zm84 0V95l-38.089-22L165 95v44l38.089 22 38.089-22zm-210 74v-44L-6.91 147-45 169v44l38.09 22 38.088-22zm84 0v-44l-38.089-22L39 169v44l38.09 22 38.088-22zm84 0v-44l-38.089-22L123 169v44l38.089 22 38.089-22zm-126 73v-44L35.09 220-3 242v44l38.09 22 38.088-22zm84 0v-44l-38.089-22L81 242v44l38.089 22 38.089-22zm84 0v-44l-38.089-22L165 242v44l38.089 22 38.089-22zm-210 74v-44L-6.91 294-45 316v44l38.09 22 38.09-22zm84 0v-44l-38.089-22L39 316v44l38.09 22 38.089-22zm84 0v-44l-38.089-22L123 316v44l38.089 22 38.089-22z" fill="#fff"/><defs><radialGradient id="paint0_radial_869_1579" cx="0" cy="0" r="1" gradientUnits="userSpaceOnUse" gradientTransform="matrix(0 161 -160 0 10 182)"><stop stop-color="#FEEB19"/><stop offset="1" stop-color="#FEEB19" stop-opacity="0"/></radialGradient></defs></svg>