<svg width="34" height="34" fill="none" xmlns="http://www.w3.org/2000/svg"><path d="M32.555 7.565c-.922-1.64-1.923-1.942-3.961-2.057-2.036-.138-7.155-.196-11.59-.196-4.443 0-9.564.058-11.598.194-2.034.117-3.037.416-3.967 2.059C.489 9.203 0 12.025 0 16.994v.017c0 4.947.489 7.79 1.439 9.411.93 1.64 1.931 1.938 3.965 2.076 2.036.12 7.157.19 11.6.19 4.435 0 9.554-.07 11.592-.188 2.038-.138 3.039-.435 3.961-2.076C33.516 24.803 34 21.96 34 17.013v-.017c0-4.97-.484-7.793-1.445-9.431zM12.75 23.375v-12.75L23.375 17 12.75 23.375z" fill="#fff"/></svg>